<svg width="668" height="668" viewBox="0 0 668 668" xmlns="http://www.w3.org/2000/svg"><path d="M323.304 67.900 C 318.828 70.708,316.667 74.451,316.667 79.392 C 316.667 86.960,322.496 93.000,329.800 93.000 C 336.397 93.000,343.005 86.248,342.996 79.516 C 342.985 70.066,331.062 63.033,323.304 67.900 M335.927 73.635 C 338.696 77.155,338.650 82.679,335.826 85.686 C 332.772 88.936,326.777 88.868,323.455 85.545 C 317.901 79.992,321.874 71.000,329.882 71.000 C 332.983 71.000,334.310 71.578,335.927 73.635 M286.062 84.827 C 279.920 88.121,277.370 95.948,280.480 101.961 C 283.890 108.556,291.253 111.397,297.387 108.487 C 307.321 103.772,307.399 88.572,297.510 84.440 C 292.941 82.530,290.169 82.624,286.062 84.827 M361.000 84.695 C 356.457 87.038,353.742 92.249,354.374 97.413 C 355.707 108.294,367.739 113.298,375.953 106.387 C 387.853 96.373,374.873 77.543,361.000 84.695 M373.750 90.555 C 377.024 94.276,376.840 100.194,373.365 102.927 C 367.383 107.633,359.000 103.870,359.000 96.480 C 359.000 94.494,359.479 91.973,360.065 90.878 C 362.473 86.379,369.921 86.203,373.750 90.555 M296.455 88.621 C 298.432 89.380,301.000 94.129,301.000 97.027 C 301.000 98.197,299.685 100.469,298.077 102.077 C 294.561 105.593,290.415 105.901,286.635 102.927 C 283.163 100.197,282.929 93.769,286.174 90.314 C 288.334 88.015,292.911 87.261,296.455 88.621 M315.878 102.259 C 307.792 106.446,303.852 111.744,303.227 119.271 C 302.864 123.658,303.881 128.440,308.928 146.056 C 320.270 185.645,321.250 198.789,314.573 221.830 C 312.608 228.611,311.000 236.204,311.000 238.702 C 311.000 243.013,323.243 282.552,326.652 289.250 C 328.253 292.396,330.493 292.815,331.878 290.227 C 332.400 289.252,336.241 278.313,340.414 265.919 C 349.055 240.251,349.354 237.809,345.440 224.926 C 337.672 199.358,338.185 187.559,348.621 151.771 C 357.574 121.071,357.449 121.675,355.950 116.320 C 353.133 106.258,341.650 99.000,328.550 99.000 C 323.308 99.000,321.055 99.579,315.878 102.259 M337.816 104.538 C 344.233 106.444,350.380 112.048,351.826 117.311 C 352.992 121.558,352.920 121.883,344.159 152.000 C 334.028 186.828,333.509 200.892,341.431 225.970 C 342.844 230.443,344.000 235.860,344.000 238.006 C 344.000 242.609,329.295 287.772,329.025 284.000 C 329.005 283.725,325.842 274.067,321.995 262.537 C 318.148 251.007,315.000 239.940,315.000 237.943 C 315.000 235.947,315.924 231.655,317.054 228.407 C 326.403 201.523,325.272 184.821,310.907 137.675 C 306.475 123.127,306.181 119.526,308.977 114.044 C 313.582 105.018,325.834 100.980,337.816 104.538 M253.071 105.702 C 248.077 108.321,245.500 112.336,245.500 117.500 C 245.500 125.393,253.157 131.944,260.722 130.524 C 265.451 129.637,270.637 124.451,271.524 119.722 C 273.398 109.732,261.960 101.041,253.071 105.702 M394.299 105.960 C 387.955 109.827,386.300 117.441,390.277 124.463 C 397.588 137.370,417.940 128.634,414.067 114.250 C 411.741 105.609,401.747 101.418,394.299 105.960 M404.452 109.415 C 413.551 113.217,411.060 126.000,401.220 126.000 C 392.093 126.000,389.093 113.043,397.384 109.434 C 401.250 107.752,400.475 107.754,404.452 109.415 M264.545 111.455 C 269.938 116.847,266.134 126.000,258.500 126.000 C 251.130 126.000,247.375 117.607,252.073 111.635 C 254.913 108.024,261.027 107.936,264.545 111.455 M289.994 116.923 C 282.112 119.356,274.567 126.459,273.431 132.516 C 272.286 138.619,273.665 144.118,279.847 158.097 C 287.953 176.428,291.097 186.724,291.726 197.000 C 292.424 208.403,290.575 215.165,282.488 230.786 C 276.507 242.339,276.000 243.813,276.000 249.649 C 276.000 260.668,281.746 271.273,295.774 286.143 C 302.503 293.277,303.682 293.992,304.631 291.520 C 304.986 290.593,302.702 287.325,298.513 282.770 C 279.847 262.473,276.211 251.596,283.547 238.000 C 294.043 218.545,295.978 212.629,295.973 200.000 C 295.968 189.061,293.346 178.688,286.872 164.000 C 276.619 140.738,275.577 136.652,278.474 131.051 C 279.847 128.395,287.583 121.000,288.989 121.000 C 289.335 121.000,289.622 124.713,289.628 129.250 C 289.639 138.352,290.139 139.989,299.378 161.129 C 313.253 192.877,313.759 201.304,303.248 225.500 C 296.217 241.685,295.980 245.672,301.199 260.000 C 306.174 273.659,314.206 291.142,315.784 291.747 C 319.320 293.104,318.708 289.777,313.154 277.454 C 305.329 260.092,302.000 250.074,302.000 243.889 C 302.000 239.951,303.131 236.240,306.980 227.545 C 318.460 201.613,317.720 191.725,301.560 155.136 C 294.282 138.657,293.063 133.880,294.250 126.500 C 295.967 115.835,295.671 115.171,289.994 116.923 M363.428 117.328 C 363.148 118.058,363.387 119.887,363.959 121.393 C 364.532 122.898,365.000 127.075,365.000 130.675 C 365.000 136.623,364.275 138.921,357.050 155.860 C 347.571 178.087,344.838 187.438,344.778 197.853 C 344.724 207.111,346.766 215.223,351.973 226.443 C 357.775 238.942,358.338 241.732,356.585 249.288 C 354.773 257.102,352.446 263.089,345.299 278.326 C 341.468 286.492,340.073 290.473,340.789 291.189 C 341.359 291.759,342.325 291.917,342.935 291.540 C 345.557 289.920,358.622 259.928,360.965 250.154 C 362.719 242.832,361.808 237.810,356.637 226.306 C 350.659 213.003,349.000 206.949,349.000 198.430 C 349.000 189.436,352.286 177.633,359.141 162.000 C 368.715 140.168,370.137 135.397,369.406 127.556 L 368.758 120.611 371.629 122.438 C 382.851 129.578,384.374 135.825,378.352 150.000 C 364.441 182.746,362.501 189.637,363.294 203.500 C 363.915 214.353,366.033 220.708,373.383 233.762 C 376.398 239.118,379.163 245.150,379.528 247.166 C 381.064 255.661,375.080 267.134,361.480 281.765 C 356.597 287.019,354.005 290.572,354.368 291.515 C 354.681 292.332,355.365 293.000,355.887 293.000 C 357.353 293.000,372.665 276.158,376.702 270.104 C 378.681 267.136,381.169 261.961,382.231 258.604 C 384.976 249.928,384.151 244.797,378.306 234.171 C 371.649 222.069,370.087 218.443,368.327 211.000 C 365.415 198.684,367.782 185.475,376.506 165.359 C 379.096 159.387,382.281 152.025,383.584 149.000 C 386.287 142.723,386.731 134.684,384.649 129.702 C 381.489 122.139,365.222 112.653,363.428 117.328 M394.250 135.737 C 391.669 136.624,393.146 138.882,397.189 140.230 C 399.493 140.998,402.271 142.822,403.363 144.284 C 405.783 147.526,405.102 149.446,398.773 157.222 C 389.495 168.622,382.000 187.546,382.000 199.571 C 382.000 205.876,384.756 215.201,388.514 221.615 C 390.025 224.192,394.414 229.702,398.268 233.859 C 406.148 242.357,408.000 245.904,408.000 252.500 C 408.000 259.515,405.882 263.190,395.752 273.753 C 381.181 288.946,379.008 292.000,382.767 292.000 C 383.748 292.000,390.210 285.928,397.278 278.366 C 408.297 266.578,410.235 264.001,411.593 259.329 C 414.514 249.280,411.771 241.879,400.843 230.334 C 392.940 221.984,388.408 213.439,386.755 203.765 C 385.874 198.612,385.991 196.119,387.418 189.713 C 389.421 180.723,395.181 168.703,400.938 161.500 C 409.138 151.240,410.618 146.326,406.922 141.629 C 403.919 137.811,397.246 134.708,394.250 135.737 M256.314 137.924 C 252.477 140.295,251.000 142.817,251.000 147.000 C 251.000 150.787,252.027 152.830,257.573 160.070 C 266.937 172.294,273.000 187.201,273.000 198.000 C 273.000 209.674,268.257 219.966,257.563 231.500 C 249.724 239.955,247.500 244.827,247.500 253.548 C 247.500 259.689,247.886 261.188,250.500 265.201 C 254.451 271.264,275.831 293.223,277.050 292.469 C 279.153 291.169,277.517 288.780,266.437 276.976 C 260.077 270.201,254.138 263.272,253.238 261.579 C 252.294 259.801,251.604 256.176,251.606 253.000 C 251.610 246.491,254.097 241.141,259.510 236.000 C 265.181 230.613,271.904 220.686,274.217 214.283 C 277.128 206.227,277.735 193.078,275.551 185.402 C 273.126 176.881,267.304 165.829,261.216 158.188 C 252.987 147.862,252.902 144.738,260.746 141.000 C 263.631 139.625,265.847 138.050,265.669 137.500 C 265.080 135.675,259.548 135.926,256.314 137.924 M277.461 172.240 C 277.125 173.117,277.822 177.302,279.011 181.539 C 283.777 198.525,282.720 210.440,275.165 224.888 C 272.688 229.625,269.504 235.742,268.089 238.482 C 266.197 242.145,265.418 245.402,265.146 250.784 C 264.814 257.362,265.089 258.731,267.866 264.302 C 272.942 274.483,288.717 293.594,291.327 292.724 C 293.752 291.916,292.782 289.800,287.131 283.563 C 273.377 268.387,268.421 258.994,269.202 249.583 C 269.647 244.209,270.181 242.942,278.302 227.972 C 284.668 216.235,286.402 208.962,285.683 197.000 C 284.835 182.861,279.523 166.867,277.461 172.240 M378.536 174.260 C 375.249 182.130,373.609 190.807,373.574 200.500 C 373.530 212.822,374.921 217.310,383.707 233.204 C 390.637 245.737,391.842 250.161,390.094 256.651 C 388.579 262.279,380.692 274.016,372.546 282.766 C 366.921 288.810,365.990 290.282,367.014 291.516 C 367.691 292.332,368.560 293.000,368.946 293.000 C 369.727 293.000,383.013 277.625,387.166 271.914 C 393.122 263.725,394.464 259.981,394.483 251.500 C 394.498 244.263,394.180 242.928,391.142 237.500 C 381.666 220.568,379.951 216.920,378.440 210.486 C 376.421 201.890,377.007 193.649,380.495 181.614 C 383.459 171.385,383.367 172.355,381.445 171.617 C 380.356 171.199,379.484 171.991,378.536 174.260 M457.500 230.953 C 444.140 234.285,435.196 244.401,433.500 258.099 C 432.525 265.977,434.795 273.872,442.004 287.670 C 445.302 293.982,448.000 300.013,448.000 301.073 C 448.000 302.969,444.928 303.000,257.655 303.000 C 74.522 303.000,67.247 303.069,65.655 304.829 C 64.356 306.264,64.000 308.729,64.000 316.275 C 64.000 325.524,64.152 326.186,67.959 333.544 C 73.032 343.346,76.019 346.975,95.498 367.000 C 117.647 389.770,125.312 400.648,129.363 415.060 C 134.464 433.208,130.270 452.314,118.399 465.004 C 101.486 483.086,71.027 482.284,52.078 463.258 C 40.986 452.120,36.081 437.815,38.033 422.295 C 39.895 407.497,49.564 393.633,60.809 389.642 C 69.181 386.670,78.877 387.583,87.628 392.167 C 95.152 396.108,98.000 395.959,98.000 391.625 C 98.000 388.586,94.752 385.705,87.497 382.308 C 82.179 379.818,80.368 379.500,71.500 379.500 C 62.717 379.500,60.797 379.830,55.718 382.209 C 39.345 389.881,29.468 405.482,28.308 425.500 C 26.656 454.032,45.244 479.140,73.500 486.542 C 81.273 488.578,98.636 488.614,106.093 486.610 C 123.761 481.862,138.386 469.966,145.570 454.500 C 156.088 431.858,153.377 407.150,137.823 383.897 C 133.783 377.857,125.160 368.108,110.984 353.554 C 86.570 328.489,83.350 323.650,88.000 319.000 C 89.985 317.015,91.333 317.000,270.000 317.000 L 450.000 317.000 450.000 364.632 C 450.000 410.588,450.071 412.378,452.009 415.514 C 454.299 419.220,458.470 421.304,462.643 420.827 L 465.500 420.500 466.000 400.331 C 466.275 389.237,466.725 379.984,467.000 379.767 C 474.237 374.055,476.834 373.680,480.912 377.758 L 483.670 380.516 484.304 404.008 C 484.709 418.998,485.535 430.684,486.587 436.299 C 487.494 441.138,488.070 445.231,487.868 445.394 C 487.666 445.558,481.960 447.342,475.190 449.360 C 458.014 454.477,445.875 459.190,444.608 461.231 C 443.785 462.558,443.931 463.360,445.235 464.663 C 446.836 466.265,447.890 466.062,463.218 461.202 C 482.870 454.970,489.762 453.316,490.843 454.573 C 491.282 455.083,492.937 458.631,494.522 462.459 C 500.188 476.147,510.939 486.814,522.845 490.563 C 533.709 493.984,547.925 491.187,557.262 483.793 C 574.700 469.981,571.353 450.077,550.384 442.894 C 544.451 440.861,541.567 440.533,529.500 440.518 C 521.800 440.508,512.300 440.889,508.389 441.366 L 501.277 442.231 500.627 439.366 C 500.270 437.789,499.729 424.350,499.425 409.500 C 499.010 389.226,498.500 381.457,497.378 378.314 C 495.726 373.687,489.437 367.397,484.872 365.805 L 481.941 364.784 484.009 361.642 C 489.316 353.580,496.910 340.206,497.488 337.905 C 498.246 334.882,496.026 332.519,493.298 333.446 C 492.309 333.782,488.198 339.219,484.161 345.528 C 477.103 356.561,469.208 366.000,467.037 366.000 C 466.349 366.000,466.000 357.754,466.000 341.500 L 466.000 317.000 515.500 317.000 L 565.000 317.000 565.168 332.250 C 565.260 340.637,565.207 361.000,565.050 377.500 C 564.858 397.722,565.137 408.868,565.907 411.696 C 567.610 417.956,573.741 422.035,579.338 420.630 L 581.676 420.043 581.588 387.772 C 581.523 363.992,581.835 354.557,582.773 351.915 C 585.610 343.928,594.767 339.561,599.924 343.737 C 603.324 346.490,603.842 351.815,603.927 384.868 L 604.000 413.235 607.946 417.181 C 611.364 420.600,612.400 421.085,615.696 420.814 L 619.500 420.500 619.764 388.553 C 619.918 369.973,619.604 354.283,619.013 351.053 C 617.778 344.304,613.782 338.309,608.458 335.220 C 602.688 331.872,592.054 332.375,586.160 336.276 L 582.000 339.028 582.000 328.014 L 582.000 317.000 605.378 317.000 C 631.140 317.000,631.414 316.934,630.818 310.914 C 630.607 308.783,629.549 306.990,627.680 305.599 C 625.072 303.658,623.210 303.462,602.877 303.000 L 580.893 302.500 578.355 296.500 C 572.294 282.172,571.754 280.297,571.250 271.841 C 570.799 264.294,571.018 262.595,572.952 258.598 C 575.979 252.345,579.973 249.702,587.180 249.181 C 597.547 248.431,605.949 254.046,613.751 266.937 C 618.466 274.729,620.292 276.137,622.639 273.790 C 624.207 272.221,624.199 271.804,622.508 267.307 C 615.119 247.647,594.648 234.561,576.524 237.911 C 562.308 240.539,554.126 249.593,553.210 263.710 C 552.630 272.651,553.914 277.915,559.572 289.799 C 566.612 304.583,572.000 303.000,514.641 303.000 L 465.283 303.000 463.246 297.750 C 462.126 294.863,459.504 288.675,457.420 284.000 C 454.309 277.024,453.552 274.043,453.196 267.375 C 452.706 258.188,453.869 253.498,457.795 248.832 C 465.314 239.896,479.044 240.005,489.359 249.085 C 491.818 251.249,496.359 256.860,499.450 261.555 C 505.380 270.558,507.095 271.996,509.513 269.989 C 511.660 268.208,511.366 265.764,508.154 258.679 C 504.682 251.022,494.857 240.209,487.596 236.055 C 478.537 230.872,466.206 228.782,457.500 230.953 M92.893 254.497 C 85.483 258.525,85.116 265.562,91.750 276.468 C 94.362 280.763,97.508 284.942,98.741 285.754 C 100.825 287.128,101.176 287.023,103.770 284.247 C 107.664 280.078,114.000 267.402,114.000 263.780 C 114.000 261.611,112.911 259.675,110.118 256.882 C 106.555 253.320,105.793 253.003,100.868 253.040 C 97.915 253.062,94.327 253.718,92.893 254.497 M174.000 334.594 C 166.894 337.672,162.008 344.278,164.035 348.065 C 165.439 350.689,167.187 350.497,170.076 347.403 C 176.192 340.850,186.961 338.870,191.545 343.455 C 193.072 344.981,194.000 347.055,194.000 348.940 C 194.000 352.283,193.011 353.067,178.732 361.040 C 168.851 366.557,162.542 372.610,159.165 379.814 C 156.835 384.785,156.500 386.757,156.500 395.500 C 156.500 406.865,158.132 411.275,164.362 416.745 C 172.353 423.761,186.838 422.466,194.450 414.055 C 196.255 412.061,196.296 412.076,199.930 416.171 C 203.118 419.764,204.157 420.310,207.963 420.399 L 212.335 420.500 212.094 389.000 C 211.961 371.675,211.402 355.380,210.852 352.790 C 209.024 344.184,201.851 336.165,194.041 333.995 C 188.801 332.539,177.999 332.862,174.000 334.594 M226.667 333.667 C 226.300 334.033,226.000 351.628,226.000 372.766 C 226.000 406.265,226.210 411.640,227.635 414.643 C 229.577 418.736,233.906 421.236,238.314 420.809 L 241.500 420.500 242.044 392.500 C 242.682 359.687,243.952 351.848,249.533 346.267 C 253.806 341.994,258.861 341.737,261.927 345.635 C 263.921 348.169,264.000 349.429,264.000 378.667 C 264.000 411.285,264.357 413.976,269.230 418.040 C 272.186 420.506,277.600 421.577,279.431 420.057 C 280.564 419.117,280.926 413.262,281.275 390.194 C 281.768 357.630,282.750 350.761,287.596 345.983 C 291.844 341.795,295.087 341.311,298.609 344.338 L 301.500 346.823 302.000 379.162 C 302.440 407.587,302.714 411.891,304.267 414.733 C 306.412 418.658,311.042 421.225,315.223 420.809 L 318.318 420.500 318.409 385.500 L 318.500 350.500 315.918 345.000 C 312.657 338.051,307.062 333.905,300.038 333.230 C 292.629 332.518,288.607 333.662,283.033 338.069 L 277.980 342.062 275.240 339.463 C 266.267 330.952,253.396 330.911,244.166 339.363 L 241.832 341.500 239.659 338.977 C 235.296 333.911,228.997 331.336,226.667 333.667 M333.000 371.435 C 333.000 396.232,333.378 410.869,334.067 412.685 C 336.289 418.551,342.051 422.071,346.908 420.529 C 348.772 419.938,348.880 418.617,349.271 391.705 C 349.601 369.041,350.027 362.158,351.440 356.671 C 353.667 348.026,357.726 343.000,362.481 343.000 C 367.206 343.000,368.055 344.600,367.349 352.170 C 366.829 357.734,366.989 358.782,368.442 359.340 C 369.379 359.699,371.055 359.506,372.167 358.911 C 374.818 357.492,378.113 349.928,378.179 345.105 C 378.350 332.715,362.088 328.838,351.696 338.792 L 348.892 341.478 346.196 338.401 C 342.788 334.513,339.951 333.000,336.066 333.000 L 333.000 333.000 333.000 371.435 M398.500 334.443 C 393.147 336.415,388.000 342.073,388.000 345.985 C 388.000 348.515,388.393 349.000,390.441 349.000 C 391.784 349.000,393.178 348.520,393.541 347.934 C 393.903 347.348,396.022 345.548,398.250 343.934 C 406.354 338.063,417.874 341.161,417.968 349.236 C 418.003 352.196,417.255 352.785,403.002 361.041 C 392.813 366.942,386.318 373.216,382.855 380.500 C 380.449 385.559,380.001 387.765,380.001 394.572 C 380.000 407.428,383.888 415.293,392.439 419.734 C 399.343 423.318,411.285 420.805,417.665 414.426 L 420.062 412.029 424.423 416.581 C 428.308 420.636,429.200 421.099,432.582 420.817 L 436.379 420.500 436.108 389.289 C 435.813 355.206,435.140 349.696,430.449 342.927 C 425.982 336.480,420.222 333.687,410.592 333.297 C 405.199 333.079,401.166 333.461,398.500 334.443 M521.007 334.593 C 507.817 340.313,504.298 358.465,514.085 370.299 C 515.813 372.389,521.659 377.455,527.076 381.558 C 538.276 390.039,542.000 395.125,542.000 401.938 C 542.000 405.452,541.403 406.797,538.600 409.600 C 535.589 412.611,534.594 413.000,529.904 413.000 C 522.626 413.000,517.628 409.537,515.253 402.849 C 513.179 397.009,510.511 395.650,507.769 399.037 C 505.502 401.837,506.100 405.824,509.600 411.241 C 515.025 419.639,526.001 423.396,536.928 420.597 C 544.272 418.716,548.091 416.237,552.033 410.795 C 557.283 403.549,557.909 392.527,553.551 384.099 C 551.476 380.086,545.156 374.004,538.447 369.565 C 531.135 364.726,525.296 359.379,523.418 355.800 C 521.135 351.451,521.613 346.296,524.575 343.334 C 526.851 341.058,527.747 340.817,532.315 341.256 C 537.048 341.711,537.882 342.201,542.271 347.102 C 546.259 351.554,547.350 352.270,548.781 351.374 C 553.577 348.372,549.829 339.507,542.015 335.373 C 536.679 332.549,526.585 332.174,521.007 334.593 M195.695 381.620 C 195.247 395.095,194.683 400.712,193.563 402.879 C 188.904 411.888,178.290 412.409,173.920 403.843 C 171.088 398.292,171.307 388.001,174.394 381.500 C 177.835 374.255,192.581 361.005,195.319 362.697 C 195.944 363.083,196.081 370.001,195.695 381.620 M416.940 403.597 C 414.116 408.166,411.269 410.000,407.000 410.000 C 399.573 410.000,395.615 404.264,395.615 393.500 C 395.615 382.018,400.654 374.002,413.172 365.569 L 418.500 361.980 418.772 381.086 C 419.027 399.022,418.915 400.402,416.940 403.597 M325.371 442.250 C 323.709 444.038,320.861 447.440,319.042 449.811 L 315.736 454.121 313.118 451.690 C 308.966 447.834,299.792 441.903,298.593 442.300 C 297.953 442.511,297.379 446.084,297.208 450.921 C 296.948 458.277,296.729 459.100,295.208 458.438 C 290.380 456.336,283.259 454.062,281.417 454.033 C 278.337 453.984,277.804 455.052,279.565 457.739 C 281.124 460.119,284.458 473.875,283.667 474.666 C 283.440 474.893,281.114 473.941,278.497 472.550 C 272.727 469.482,263.269 466.398,262.374 467.293 C 261.389 468.278,263.958 476.775,267.237 483.375 C 272.565 494.102,282.174 501.557,293.916 504.075 C 296.944 504.725,311.798 505.003,333.145 504.810 L 367.500 504.500 373.046 501.899 C 380.031 498.623,384.920 494.349,389.283 487.706 C 392.480 482.839,397.000 471.403,397.000 468.181 C 397.000 466.194,392.193 467.256,384.138 471.024 C 380.638 472.661,377.385 474.000,376.907 474.000 C 375.664 474.000,376.960 465.341,379.041 459.750 C 380.093 456.922,380.423 454.761,379.857 454.411 C 378.672 453.679,369.430 455.798,365.800 457.634 C 364.314 458.385,362.852 459.000,362.550 459.000 C 362.247 459.000,362.000 455.715,362.000 451.700 C 362.000 447.536,361.506 443.906,360.851 443.251 C 359.360 441.760,355.896 443.519,348.569 449.487 L 343.097 453.944 340.893 450.722 C 337.796 446.194,330.797 439.000,329.488 439.000 C 328.885 439.000,327.033 440.462,325.371 442.250 M334.291 448.798 C 340.165 456.084,344.332 465.509,344.770 472.500 C 345.112 477.964,344.821 479.036,341.510 484.500 C 337.564 491.013,331.302 498.000,329.412 498.000 C 327.911 498.000,318.553 486.627,316.248 482.000 C 313.383 476.251,314.088 468.603,318.283 459.905 C 321.570 453.089,328.235 443.934,329.828 444.048 C 330.198 444.074,332.206 446.212,334.291 448.798 M310.089 454.462 C 312.858 457.024,313.935 458.725,313.500 459.853 C 313.150 460.759,312.350 463.418,311.721 465.763 C 311.093 468.108,310.278 469.908,309.910 469.763 C 309.543 469.618,307.388 467.814,305.121 465.753 C 300.759 461.786,300.292 459.914,301.637 451.781 C 302.341 447.524,302.721 447.645,310.089 454.462 M357.863 454.093 C 357.964 456.938,358.231 459.565,358.457 459.931 C 359.000 460.809,358.235 461.768,353.363 466.319 L 349.275 470.137 347.567 464.916 C 346.628 462.045,346.124 458.751,346.447 457.598 C 347.038 455.489,355.988 447.889,357.090 448.561 C 357.414 448.758,357.762 451.248,357.863 454.093 M540.385 451.043 C 547.366 453.655,553.000 459.578,553.000 464.307 C 553.000 469.040,548.118 476.241,543.385 478.490 C 533.797 483.047,522.705 480.913,515.038 473.036 C 509.956 467.815,504.820 458.207,504.627 453.562 C 504.509 450.729,504.799 450.455,508.500 449.892 C 510.700 449.557,517.546 449.220,523.712 449.142 C 532.799 449.027,535.960 449.387,540.385 451.043 M293.111 462.056 C 301.454 466.268,306.939 472.129,312.360 482.625 C 314.897 487.536,318.553 493.230,320.486 495.279 C 322.419 497.328,324.000 499.229,324.000 499.502 C 324.000 499.776,321.625 500.000,318.722 500.000 C 308.404 500.000,293.464 490.194,289.587 480.876 C 288.757 478.883,287.588 474.158,286.988 470.376 C 286.388 466.594,285.646 462.488,285.340 461.250 C 284.599 458.256,285.837 458.384,293.111 462.056 M374.164 461.125 C 373.979 461.881,373.241 466.416,372.525 471.202 C 371.081 480.846,369.071 484.896,363.014 490.368 C 356.722 496.053,349.497 499.224,341.531 499.798 L 334.563 500.300 338.657 495.400 C 340.909 492.705,344.834 486.675,347.379 482.000 C 352.557 472.489,359.415 465.467,367.422 461.477 C 372.629 458.882,374.739 458.772,374.164 461.125 M285.478 483.232 C 288.517 488.377,294.999 494.914,299.942 497.821 L 304.500 500.500 301.229 500.815 C 293.205 501.587,280.348 495.224,274.991 487.829 C 271.664 483.235,268.000 475.633,268.000 473.322 C 268.000 470.818,283.254 479.467,285.478 483.232 M390.439 476.803 C 386.167 487.032,379.439 494.591,371.466 498.118 C 369.112 499.159,364.332 500.272,360.843 500.592 L 354.500 501.172 359.500 498.193 C 365.200 494.796,367.875 492.134,372.962 484.798 C 375.671 480.891,378.251 478.701,383.474 475.874 C 387.281 473.813,390.753 472.348,391.189 472.617 C 391.625 472.887,391.288 474.770,390.439 476.803 M220.422 483.394 C 218.470 488.347,229.139 506.985,240.500 518.466 C 249.991 528.057,259.559 533.370,270.302 535.014 C 279.868 536.478,285.198 535.570,304.000 529.271 C 328.136 521.186,334.816 521.142,354.621 528.939 C 372.701 536.058,384.020 537.262,396.899 533.437 C 407.032 530.428,420.446 519.110,429.193 506.191 C 434.134 498.892,439.998 487.561,439.999 485.309 C 440.002 481.703,436.532 484.087,424.178 496.183 C 416.655 503.548,408.238 511.002,405.474 512.747 C 396.962 518.122,387.559 521.117,377.250 521.738 C 367.201 522.342,365.046 521.189,372.250 519.062 C 380.080 516.750,387.960 511.799,393.781 505.532 C 399.820 499.032,407.000 487.756,407.000 484.773 C 407.000 481.380,404.018 483.031,401.624 487.750 C 394.622 501.549,384.237 510.886,371.150 515.146 C 365.091 517.119,361.835 517.351,334.500 517.756 C 300.868 518.254,291.242 517.288,281.152 512.402 C 273.954 508.916,263.622 498.488,259.000 490.044 C 257.075 486.527,254.938 483.466,254.251 483.242 C 248.970 481.518,256.858 496.872,265.991 506.096 C 272.574 512.745,280.536 517.523,287.715 519.133 C 290.584 519.776,292.695 520.685,292.406 521.151 C 291.686 522.318,280.427 522.219,273.943 520.989 C 266.643 519.605,255.613 514.377,249.000 509.167 C 245.975 506.784,238.475 499.584,232.334 493.167 C 222.853 483.260,221.056 481.786,220.422 483.394 M250.492 515.466 C 265.247 525.222,279.550 527.909,298.500 524.485 C 311.403 522.153,311.379 522.675,298.378 527.098 C 275.315 534.942,260.001 531.967,244.521 516.632 C 238.268 510.439,230.000 499.775,230.000 497.904 C 230.000 497.561,233.262 500.481,237.250 504.393 C 241.238 508.304,247.196 513.287,250.492 515.466 M426.399 503.226 C 420.992 511.176,407.858 523.576,401.500 526.733 C 393.795 530.559,391.165 531.156,382.222 531.109 C 374.601 531.069,363.174 528.401,355.672 524.910 C 352.044 523.222,351.891 523.033,354.500 523.462 C 367.864 525.658,373.497 526.142,380.000 525.650 C 394.523 524.553,407.043 518.511,419.806 506.439 C 424.588 501.916,428.679 498.384,428.899 498.589 C 429.118 498.795,427.993 500.882,426.399 503.226 M320.324 535.375 C 314.123 537.410,309.691 540.463,304.165 546.509 C 297.663 553.624,293.602 565.000,297.565 565.000 C 299.961 565.000,308.922 561.000,314.500 557.440 C 320.202 553.801,325.514 548.794,328.032 544.685 L 329.757 541.871 331.933 545.392 C 336.942 553.496,350.920 562.935,360.358 564.588 L 364.217 565.263 363.533 561.882 C 361.484 551.741,353.975 542.581,343.517 537.465 C 337.071 534.311,326.478 533.356,320.324 535.375 M326.000 539.021 C 326.000 540.969,320.887 547.756,317.168 550.745 C 313.853 553.409,303.941 559.000,302.533 559.000 C 301.245 559.000,302.201 555.641,304.546 551.927 C 307.420 547.374,313.967 542.325,320.264 539.804 C 325.326 537.778,326.000 537.686,326.000 539.021 M341.690 540.946 C 349.078 544.300,359.938 556.395,357.633 558.701 C 356.695 559.639,347.203 554.883,343.066 551.402 C 339.596 548.482,334.000 541.352,334.000 539.850 C 334.000 538.459,337.223 538.918,341.690 540.946 " stroke="none" fill="#56322b" fill-rule="evenodd"/></svg>
