<svg width="668" height="295" viewBox="0 0 668 295" xmlns="http://www.w3.org/2000/svg"><path d="M457.500 12.953 C 444.140 16.285,435.196 26.401,433.500 40.099 C 432.525 47.977,434.795 55.872,442.004 69.670 C 445.302 75.982,448.000 82.013,448.000 83.073 C 448.000 84.969,444.928 85.000,257.655 85.000 C 74.522 85.000,67.247 85.069,65.655 86.829 C 64.360 88.260,64.002 90.706,64.010 98.079 C 64.018 105.939,64.421 108.363,66.445 112.709 C 70.907 122.292,77.086 130.071,94.360 147.848 C 121.588 175.868,129.278 188.317,131.517 208.000 C 132.967 220.741,127.353 237.432,118.399 247.004 C 101.486 265.086,71.027 264.284,52.078 245.258 C 40.986 234.120,36.081 219.815,38.033 204.295 C 39.895 189.497,49.564 175.633,60.809 171.642 C 69.181 168.670,78.877 169.583,87.628 174.167 C 95.152 178.108,98.000 177.959,98.000 173.625 C 98.000 170.586,94.752 167.705,87.497 164.308 C 82.179 161.818,80.368 161.500,71.500 161.500 C 62.369 161.500,60.926 161.772,54.890 164.632 C 34.719 174.189,23.842 199.680,29.557 224.000 C 34.337 244.341,49.654 260.944,69.605 267.410 C 87.263 273.133,110.909 270.042,125.312 260.128 C 152.073 241.709,159.545 205.136,142.910 174.000 C 137.716 164.280,129.937 154.959,109.820 134.352 C 91.750 115.844,86.000 108.647,86.000 104.540 C 86.000 103.693,86.900 102.100,88.000 101.000 C 89.985 99.015,91.333 99.000,270.000 99.000 L 450.000 99.000 450.000 146.632 C 450.000 192.588,450.071 194.378,452.009 197.514 C 454.299 201.220,458.470 203.304,462.643 202.827 L 465.500 202.500 466.000 182.331 C 466.275 171.237,466.725 161.984,467.000 161.767 C 474.238 156.055,476.834 155.680,480.914 159.760 L 483.674 162.520 484.298 185.510 C 484.676 199.395,485.568 212.194,486.551 217.827 C 487.446 222.957,488.026 227.275,487.840 227.423 C 487.653 227.571,481.960 229.342,475.190 231.360 C 458.014 236.477,445.875 241.190,444.608 243.231 C 443.785 244.558,443.931 245.360,445.235 246.663 C 446.836 248.265,447.890 248.062,463.218 243.202 C 482.870 236.970,489.762 235.316,490.843 236.573 C 491.282 237.083,492.937 240.631,494.522 244.459 C 500.188 258.147,510.939 268.814,522.845 272.563 C 533.841 276.025,547.790 273.295,557.208 265.836 C 574.701 251.981,571.385 232.088,550.384 224.894 C 544.451 222.861,541.567 222.533,529.500 222.518 C 521.800 222.508,512.300 222.889,508.389 223.366 L 501.277 224.231 500.638 221.366 C 500.287 219.789,499.745 206.350,499.433 191.500 C 499.010 171.281,498.493 163.449,497.375 160.314 C 495.726 155.687,489.439 149.398,484.872 147.805 L 481.941 146.784 484.009 143.642 C 489.316 135.580,496.910 122.206,497.488 119.905 C 498.246 116.882,496.026 114.519,493.298 115.446 C 492.309 115.782,488.198 121.219,484.161 127.528 C 477.103 138.561,469.208 148.000,467.037 148.000 C 466.349 148.000,466.000 139.754,466.000 123.500 L 466.000 99.000 515.500 99.000 L 565.000 99.000 565.175 113.750 C 565.272 121.862,565.218 142.225,565.056 159.000 C 564.857 179.652,565.131 190.855,565.905 193.696 C 567.611 199.957,573.742 204.034,579.338 202.630 L 581.676 202.043 581.588 169.772 C 581.523 145.992,581.835 136.557,582.773 133.915 C 585.610 125.928,594.767 121.561,599.924 125.737 C 603.324 128.490,603.842 133.815,603.927 166.868 L 604.000 195.235 607.946 199.181 C 611.364 202.600,612.400 203.085,615.696 202.814 L 619.500 202.500 619.764 170.553 C 619.918 151.973,619.604 136.283,619.013 133.053 C 617.778 126.304,613.782 120.309,608.458 117.220 C 602.688 113.872,592.054 114.375,586.160 118.276 L 582.000 121.028 582.000 110.014 L 582.000 99.000 605.378 99.000 C 631.140 99.000,631.414 98.934,630.818 92.914 C 630.607 90.783,629.549 88.990,627.680 87.599 C 625.072 85.658,623.210 85.462,602.877 85.000 L 580.893 84.500 578.355 78.500 C 572.294 64.172,571.754 62.297,571.250 53.841 C 570.799 46.294,571.018 44.595,572.952 40.598 C 575.887 34.537,579.954 31.751,586.684 31.193 C 596.881 30.348,606.453 36.610,613.806 48.937 C 618.446 56.716,620.286 58.143,622.639 55.790 C 624.207 54.221,624.199 53.804,622.508 49.307 C 610.565 17.530,568.814 8.623,555.451 35.000 C 553.181 39.481,552.384 51.489,553.943 57.710 C 554.604 60.344,557.137 66.685,559.572 71.799 C 566.612 86.584,572.010 85.000,514.578 85.000 L 465.155 85.000 463.939 81.250 C 463.271 79.188,461.262 74.574,459.474 70.998 C 454.863 61.771,452.997 54.706,453.022 46.568 C 453.068 31.695,461.987 22.772,475.240 24.342 C 484.490 25.438,491.463 31.137,500.336 44.853 C 505.307 52.536,507.138 53.960,509.513 51.989 C 511.662 50.206,511.366 47.763,508.137 40.642 C 504.663 32.981,494.212 21.522,487.234 17.724 C 478.214 12.815,465.947 10.846,457.500 12.953 M92.893 36.497 C 85.483 40.525,85.116 47.562,91.750 58.468 C 94.362 62.763,97.508 66.942,98.741 67.754 C 100.825 69.128,101.176 69.023,103.770 66.247 C 107.664 62.078,114.000 49.402,114.000 45.780 C 114.000 43.611,112.911 41.675,110.118 38.882 C 106.555 35.320,105.793 35.003,100.868 35.040 C 97.915 35.062,94.327 35.718,92.893 36.497 M174.000 116.594 C 166.894 119.672,162.008 126.278,164.035 130.065 C 165.439 132.689,167.187 132.497,170.076 129.403 C 176.192 122.850,186.961 120.870,191.545 125.455 C 193.072 126.981,194.000 129.055,194.000 130.940 C 194.000 134.284,193.014 135.065,178.712 143.052 C 169.074 148.433,162.466 154.813,159.086 162.000 C 156.844 166.769,156.500 168.829,156.500 177.500 C 156.500 188.865,158.132 193.275,164.362 198.745 C 172.353 205.761,186.838 204.466,194.450 196.055 C 196.255 194.061,196.296 194.076,199.930 198.171 C 203.118 201.764,204.157 202.310,207.963 202.399 L 212.335 202.500 212.094 171.000 C 211.961 153.675,211.402 137.380,210.852 134.790 C 209.024 126.184,201.851 118.165,194.041 115.995 C 188.801 114.539,177.999 114.862,174.000 116.594 M226.667 115.667 C 226.300 116.033,226.000 133.628,226.000 154.766 C 226.000 188.265,226.210 193.640,227.635 196.643 C 229.577 200.736,233.906 203.236,238.314 202.809 L 241.500 202.500 242.105 174.000 C 242.730 144.586,243.736 136.641,247.683 129.960 C 250.918 124.483,258.478 123.249,261.927 127.635 C 263.921 130.169,264.000 131.429,264.000 160.667 C 264.000 193.285,264.357 195.976,269.230 200.040 C 272.186 202.506,277.600 203.577,279.431 202.057 C 280.564 201.117,280.926 195.262,281.275 172.194 C 281.768 139.630,282.750 132.761,287.596 127.983 C 291.844 123.795,295.087 123.311,298.609 126.338 L 301.500 128.823 302.000 161.162 C 302.440 189.587,302.714 193.891,304.267 196.733 C 306.412 200.658,311.042 203.225,315.223 202.809 L 318.318 202.500 318.409 167.500 L 318.500 132.500 315.918 127.000 C 312.657 120.051,307.062 115.905,300.038 115.230 C 292.629 114.518,288.607 115.662,283.033 120.069 L 277.980 124.062 275.240 121.463 C 266.267 112.952,253.396 112.911,244.166 121.363 L 241.832 123.500 239.659 120.977 C 235.296 115.911,228.997 113.336,226.667 115.667 M333.000 153.435 C 333.000 178.232,333.378 192.869,334.067 194.685 C 336.289 200.551,342.051 204.071,346.908 202.529 C 348.772 201.938,348.880 200.617,349.271 173.705 C 349.601 151.041,350.027 144.158,351.440 138.671 C 353.667 130.026,357.726 125.000,362.481 125.000 C 367.206 125.000,368.055 126.600,367.349 134.170 C 366.829 139.734,366.989 140.782,368.442 141.340 C 374.872 143.807,380.977 127.473,376.296 120.328 C 371.661 113.255,359.322 113.487,351.696 120.792 L 348.892 123.478 346.196 120.401 C 342.788 116.513,339.951 115.000,336.066 115.000 L 333.000 115.000 333.000 153.435 M398.500 116.443 C 393.147 118.415,388.000 124.073,388.000 127.985 C 388.000 130.515,388.393 131.000,390.441 131.000 C 391.784 131.000,393.178 130.520,393.541 129.934 C 393.903 129.348,396.022 127.548,398.250 125.934 C 406.354 120.063,417.874 123.161,417.968 131.236 C 418.003 134.222,417.142 134.894,402.500 143.325 C 392.324 149.184,386.444 154.922,382.848 162.500 C 380.450 167.554,380.001 169.773,380.001 176.572 C 380.000 189.428,383.888 197.293,392.439 201.734 C 399.368 205.331,411.286 202.805,417.716 196.375 L 420.164 193.927 423.878 198.112 C 427.120 201.766,428.146 202.310,431.963 202.399 L 436.335 202.500 436.087 171.289 C 435.815 137.196,435.147 131.706,430.449 124.927 C 425.982 118.480,420.222 115.687,410.592 115.297 C 405.199 115.079,401.166 115.461,398.500 116.443 M521.007 116.593 C 507.753 122.341,504.251 140.436,514.093 152.317 C 515.833 154.416,521.536 159.336,526.767 163.251 C 537.937 171.610,542.000 177.090,542.000 183.796 C 542.000 187.471,541.437 188.763,538.600 191.600 C 535.563 194.637,534.617 195.000,529.735 195.000 C 522.192 195.000,517.190 191.223,514.861 183.769 C 513.372 179.006,510.355 177.844,507.769 181.037 C 504.369 185.236,508.453 194.624,515.793 199.482 C 528.496 207.888,547.521 202.884,554.038 189.421 C 556.981 183.342,557.103 174.189,554.323 168.000 C 551.852 162.497,546.332 156.783,538.447 151.565 C 531.135 146.726,525.296 141.379,523.418 137.800 C 521.135 133.451,521.613 128.296,524.575 125.334 C 526.851 123.058,527.747 122.817,532.315 123.256 C 537.048 123.711,537.882 124.201,542.271 129.102 C 546.259 133.554,547.350 134.270,548.781 133.374 C 553.577 130.372,549.829 121.507,542.015 117.373 C 536.679 114.549,526.585 114.174,521.007 116.593 M195.643 163.467 C 195.144 183.202,194.510 185.880,189.385 189.912 C 184.311 193.903,177.058 191.995,173.920 185.843 C 171.088 180.292,171.307 170.001,174.394 163.500 C 177.761 156.411,192.569 142.998,195.220 144.636 C 195.709 144.938,195.899 153.358,195.643 163.467 M416.940 185.597 C 414.116 190.166,411.269 192.000,407.000 192.000 C 399.573 192.000,395.615 186.264,395.615 175.500 C 395.615 164.018,400.654 156.002,413.172 147.569 L 418.500 143.980 418.772 163.086 C 419.027 181.022,418.915 182.402,416.940 185.597 M540.385 233.043 C 547.366 235.655,553.000 241.578,553.000 246.307 C 553.000 251.040,548.118 258.241,543.385 260.490 C 533.797 265.047,522.705 262.913,515.038 255.036 C 509.956 249.815,504.820 240.207,504.627 235.562 C 504.509 232.729,504.799 232.455,508.500 231.892 C 510.700 231.557,517.546 231.220,523.712 231.142 C 532.799 231.027,535.960 231.387,540.385 233.043 " stroke="none" fill="#56322b" fill-rule="evenodd"/></svg>
